<?xml version="1.0" encoding="UTF-8"?>
<!DOCTYPE svg PUBLIC "-//W3C//DTD SVG 1.1//EN" "http://www.w3.org/Graphics/SVG/1.1/DTD/svg11.dtd">
<!-- Creator: CorelDRAW -->
<svg xmlns="http://www.w3.org/2000/svg" xml:space="preserve" width="245.304mm" height="50.7434mm" version="1.1" style="shape-rendering:geometricPrecision; text-rendering:geometricPrecision; image-rendering:optimizeQuality; fill-rule:evenodd; clip-rule:evenodd"
viewBox="0 0 25453.3 5265.24"
 xmlns:xlink="http://www.w3.org/1999/xlink"
 xmlns:xodm="http://www.corel.com/coreldraw/odm/2003">
 <defs>
  <style type="text/css">
   <![CDATA[
    .fil1 {fill:black;fill-rule:nonzero}
    .fil0 {fill:url(#id0);fill-rule:nonzero}
   ]]>
  </style>
  <linearGradient id="id0" gradientUnits="userSpaceOnUse" x1="4056.18" y1="4530.83" x2="4056.18" y2="67.8">
   <stop offset="0" style="stop-opacity:1; stop-color:#A8518A"/>
   <stop offset="1" style="stop-opacity:1; stop-color:#692D51"/>
  </linearGradient>
 </defs>
 <g id="Layer_x0020_1">
  <metadata id="CorelCorpID_0Corel-Layer"/>
  <path class="fil0" d="M5245.57 1907.46c142.78,-142.78 340.04,-231.09 557.95,-231.09 217.88,0 415.16,88.31 557.93,231.09 142.78,142.78 231.09,340.05 231.09,557.95 0,217.88 -88.31,415.15 -231.09,557.93 -142.77,142.78 -340.05,231.09 -557.93,231.09 -217.91,0 -415.17,-88.31 -557.95,-231.09 -142.76,-142.78 -231.08,-340.04 -231.08,-557.93 0,-217.91 88.32,-415.17 231.08,-557.95zm-552.99 977.9c-19.09,-227.73 -155.98,-258.93 -308.36,-293.67 -80.81,-18.42 -170.72,-38.91 -198.28,-155.45 -13.4,-57.53 -64.96,-96.24 -121.66,-95.66 -56.72,-0.58 -108.28,38.13 -121.67,95.66 -27.57,116.54 -117.47,137.03 -198.28,155.45 -152.39,34.74 -289.27,65.94 -308.36,293.67 -0.9,11.03 -0.34,21.84 1.54,32.24 64.49,601.83 234.54,1074.15 473.07,1432.47 -229.11,287.2 -511.87,474.27 -816.58,575.02 -439.51,145.32 -926.27,113.9 -1364.49,-53.34 -439.16,-167.6 -828.06,-470.8 -1070.73,-868.58 -368.31,-603.78 -398.18,-1431.69 248.78,-2342.06 39.53,-55.58 26.54,-132.69 -29.02,-172.25 -55.58,-39.53 -132.71,-26.54 -172.25,29.03 -714.66,1005.64 -674.55,1931.91 -258.46,2613.97 272.03,445.93 705.47,784.87 1193.63,971.16 489.1,186.66 1034.72,220.95 1529.95,57.2 331.71,-109.67 640.06,-307.07 892.87,-605.52 252.82,298.43 561.16,495.85 892.86,605.52 495.24,163.75 1040.85,129.45 1529.95,-57.2 488.15,-186.29 921.59,-525.23 1193.63,-971.16 416.09,-682.06 456.2,-1608.32 -258.46,-2613.97 -39.53,-55.58 -116.67,-68.57 -172.25,-29.03 -55.58,39.55 -68.57,116.67 -29.02,172.25 646.95,910.37 617.09,1738.28 248.77,2342.06 -242.66,397.78 -631.56,700.99 -1070.72,868.58 -438.22,167.24 -924.99,198.66 -1364.49,53.34 -304.71,-100.75 -587.46,-287.83 -816.58,-575.02 238.51,-358.33 408.58,-830.64 473.06,-1432.47 1.89,-10.4 2.45,-21.21 1.55,-32.24zm-628.3 -167.63c77.03,71.87 174.46,94.1 265.73,114.92 55.51,12.66 105.7,24.09 114.64,65.17 -55.27,509.16 -190.86,915.43 -380.37,1230.53 -189.52,-315.06 -325.11,-721.36 -380.39,-1230.53 8.94,-41.08 59.12,-52.51 114.65,-65.17 91.27,-20.81 188.7,-43.05 265.75,-114.92zm85.55 -1021.26c504.35,-573.7 1230.26,-663 1949.24,-751.41 725.96,-89.28 1445.3,-177.77 1979.23,-736.38 47.01,-49.42 45.06,-127.63 -4.36,-174.65 -49.42,-47.01 -127.64,-45.06 -174.65,4.36 -472.01,493.82 -1148.01,576.98 -1830.2,660.88 -724.53,89.11 -1455.62,179.12 -2012.92,736.45 -557.31,-557.33 -1288.4,-647.34 -2012.92,-736.45 -682.19,-83.9 -1358.19,-167.06 -1830.21,-660.88 -47.01,-49.42 -125.22,-51.37 -174.65,-4.36 -49.42,47.03 -51.38,125.23 -4.36,174.65 533.92,558.61 1253.28,647.1 1979.22,736.38 719,88.42 1444.91,177.71 1949.27,751.41 2.25,2.6 4.62,5.15 7.12,7.61l0.27 0.26 2.18 2.08 1.17 1.08c4.47,4.06 9.16,7.73 14.18,11.11l2.42 1.58 0.29 0.18 2.22 1.37 0.67 0.42 1.93 1.12 0.28 0.17 1.61 0.9 0.35 0.2 2.06 1.09 0.38 0.2c1.67,0.87 3.35,1.67 5.05,2.47l0.4 0.18 2.29 1.01 0.46 0.2c13.68,5.81 28.13,9.04 42.66,9.68l0.79 0.04 2.43 0.05 0.39 0.02 2.03 0.01 2.03 -0.01 0.39 -0.02 2.43 -0.05 0.78 -0.04c14.53,-0.65 28.98,-3.87 42.66,-9.68l0.45 -0.2 2.29 -1.01 0.42 -0.18c1.69,-0.8 3.38,-1.6 5.04,-2.47l0.38 -0.2 2.06 -1.09 0.35 -0.2 1.63 -0.9 0.27 -0.17 1.92 -1.12 0.7 -0.42 2.21 -1.37 0.3 -0.18 2.53 -1.66c4.89,-3.3 9.59,-6.97 14.07,-11.03l1.18 -1.11 2.17 -2.04 0.25 -0.26c2.51,-2.46 4.89,-5 7.14,-7.61zm-1561.43 522.14c0,85.75 -69.5,155.27 -155.26,155.27 -85.76,0 -155.27,-69.52 -155.27,-155.27 0,-85.74 69.51,-155.26 155.27,-155.26 85.76,0 155.26,69.52 155.26,155.26zm-279.57 764.02c285.67,0 517.22,-231.58 517.22,-517.22 0,-285.65 -231.56,-517.22 -517.22,-517.22 -285.66,0 -517.22,231.58 -517.22,517.22 0,285.65 231.57,517.22 517.22,517.22zm557.93 -1075.17c142.78,142.78 231.1,340.04 231.1,557.95 0,217.89 -88.32,415.15 -231.1,557.93 -142.77,142.78 -340.03,231.09 -557.93,231.09 -217.89,0 -415.16,-88.31 -557.94,-231.09 -142.77,-142.78 -231.1,-340.05 -231.1,-557.93 0,-217.9 88.33,-415.17 231.1,-557.95 142.78,-142.78 340.05,-231.09 557.94,-231.09 217.9,0 415.16,88.31 557.93,231.09zm478.81 557.95c0,-286.29 -116.05,-545.47 -303.67,-733.1 -187.61,-187.61 -446.8,-303.65 -733.07,-303.65 -286.28,0 -545.47,116.04 -733.09,303.65 -187.6,187.63 -303.66,446.81 -303.66,733.1 0,286.27 116.06,545.45 303.66,733.08 187.62,187.61 446.81,303.65 733.09,303.65 286.27,0 545.46,-116.04 733.07,-303.65 187.62,-187.63 303.67,-446.81 303.67,-733.08zm1940.73 0c0,285.65 231.56,517.22 517.22,517.22 285.66,0 517.22,-231.58 517.22,-517.22 0,-285.65 -231.57,-517.22 -517.22,-517.22 -285.67,0 -517.22,231.58 -517.22,517.22zm641.52 -91.53c-85.76,0 -155.26,-69.52 -155.26,-155.27 0,-85.74 69.5,-155.26 155.26,-155.26 85.76,0 155.27,69.52 155.27,155.26 0,85.75 -69.51,155.27 -155.27,155.27zm-857.38 -641.57c-187.61,187.63 -303.67,446.81 -303.67,733.1 0,286.27 116.06,545.45 303.67,733.08 187.61,187.61 446.79,303.65 733.08,303.65 286.27,0 545.46,-116.04 733.08,-303.65 187.61,-187.63 303.65,-446.81 303.65,-733.08 0,-286.29 -116.04,-545.47 -303.65,-733.1 -187.62,-187.61 -446.81,-303.65 -733.08,-303.65 -286.29,0 -545.47,116.04 -733.08,303.65z"/>
  <path class="fil1" d="M9249.64 3486.69c-11.04,4.61 -16.56,18.41 -11.04,29.46l248.53 590.95c0.91,4.6 2.76,8.28 5.52,11.04l0.92 0.92 1.84 1.84c3.68,2.77 8.28,4.61 13.81,4.61 4.6,0 9.2,-0.92 12.89,-3.68 0,0 0.91,-0.92 1.84,-0.92 1.84,-1.84 3.68,-3.67 4.61,-6.44 0.91,-0.91 1.84,-2.76 1.84,-4.6l164.76 -389.36 163.84 389.36c0.92,0.92 0.92,1.84 0.92,2.76 0.92,1.84 2.76,4.61 3.68,5.52 0.92,1.85 2.76,2.76 3.68,3.68 3.68,2.76 7.36,3.68 11.04,3.68l2.76 0 1.85 0c6.44,-0.92 14.72,-6.44 18.41,-14.72l250.37 -594.63c5.52,-11.05 0,-24.85 -11.04,-29.46 -12.89,-5.52 -24.86,0 -30.38,11.05l-230.11 547.68 -162.93 -387.52c-4.6,-8.28 -12.89,-13.8 -23.01,-13.8 -8.28,0 -16.56,5.52 -21.17,13.8l-163.84 387.52 -230.12 -547.68c-4.6,-11.05 -18.41,-16.57 -29.46,-11.05zm-16.56 -1364.72c0,618.98 453.15,1051.4 1030.67,1051.4 447.24,0 802.64,-222.14 956.65,-619l-322.81 0c-112.54,245.82 -331.73,385.02 -633.83,385.02 -432.41,0 -755.23,-313.94 -755.23,-817.42 0,-506.45 322.82,-820.41 755.23,-820.41 302.1,0 521.29,139.22 633.83,387.99l322.81 0c-154,-399.83 -509.41,-624.92 -956.65,-624.92 -577.52,0 -1030.67,438.33 -1030.67,1057.34zm15769.1 -713.3l58.07 0 0 -329.88 147.38 329.88 40.84 0 146.76 -329.24 0 329.24 58.08 0 0 -441.55 -61.9 0 -163.34 364.98 -163.36 -364.98 -62.52 0 0 441.55zm-372.63 -397.52l121.87 0 0 397.52 58.07 0 0 -397.52 121.23 0 0 -47.2 -301.16 0 0 47.2zm-13110.02 1327.01c0,503.51 334.66,844.12 767.08,844.12 299.14,0 509.41,-154.03 607.14,-328.77l0 302.1 272.48 0 0 -1623.02 -272.48 0 0 296.16c-94.77,-168.81 -302.09,-322.82 -604.19,-322.82 -435.38,0 -770.04,325.78 -770.04,832.23zm1374.23 2.96c0,382.07 -254.69,604.2 -550.86,604.2 -296.19,0 -547.93,-225.08 -547.93,-607.15 0,-382.04 251.74,-598.26 547.93,-598.26 296.17,0 550.86,225.1 550.86,601.22zm998.12 -68.12c0,-376.13 195.45,-491.63 453.13,-491.63l71.09 0 0 -278.4c-257.67,0 -432.41,112.55 -524.22,293.22l0 -263.6 -269.52 0 0 1623.02 269.52 0 0 -882.61zm1525.26 -539.02c278.4,0 515.35,174.74 512.39,491.65l-1024.75 0c29.61,-316.91 248.77,-491.65 512.37,-491.65zm758.2 921.1l-290.24 0c-59.24,174.74 -213.25,299.12 -456.11,299.12 -275.45,0 -506.44,-180.64 -527.18,-509.4l1297.21 0c5.94,-56.27 8.9,-103.67 8.9,-162.89 0,-444.27 -308.02,-775.97 -778.93,-775.97 -473.87,0 -802.62,322.82 -802.62,835.19 0,515.36 340.6,841.16 802.62,841.16 402.79,0 663.42,-231.05 746.35,-527.21zm1078.07 -921.1c278.4,0 515.33,174.74 512.38,491.65l-1024.75 0c29.61,-316.91 248.78,-491.65 512.38,-491.65zm758.19 921.1l-290.24 0c-59.24,174.74 -213.23,299.12 -456.1,299.12 -275.45,0 -506.45,-180.64 -527.19,-509.4l1297.23 0c5.92,-56.27 8.89,-103.67 8.89,-162.89 0,-444.27 -308.03,-775.97 -778.93,-775.97 -473.88,0 -802.63,322.82 -802.63,835.19 0,515.36 340.61,841.16 802.63,841.16 402.79,0 663.41,-231.05 746.34,-527.21zm657.51 -382.07c0,-376.13 195.45,-491.63 453.14,-491.63l71.08 0 0 -278.4c-257.67,0 -432.41,112.55 -524.22,293.22l0 -263.6 -269.52 0 0 1623.02 269.52 0 0 -882.61zm2807.7 -151.03c0,-619 -453.14,-1054.38 -1036.59,-1054.38 -580.5,0 -1036.61,435.38 -1036.61,1054.38 0,618.98 456.12,1054.37 1036.61,1054.37 583.45,0 1036.59,-435.39 1036.59,-1054.37zm-1797.76 0c0,-506.45 325.79,-820.41 761.17,-820.41 435.37,0 761.15,313.95 761.15,820.41 0,503.47 -325.78,820.39 -761.15,820.39 -435.38,0 -761.17,-316.91 -761.17,-820.39zm2470.06 1033.64l278.4 0 390.96 -1288.35 390.96 1288.35 278.39 0 506.46 -1623.02 -266.56 0 -367.25 1365.33 -393.91 -1365.33 -275.45 0 -402.8 1362.38 -373.17 -1362.38 -275.44 0 509.41 1623.02zm2111.72 0l269.52 0 0 -2191.66 -269.52 0 0 2191.66zm-13995.89 947.8c0,11.96 10.13,22.09 22.09,22.09 12.89,0 23.01,-10.13 23.01,-22.09l0 -406.85c0,-12.89 -10.13,-22.09 -23.01,-22.09 -11.96,0 -22.09,9.2 -22.09,22.09l0 406.85zm0 -532.95c0,12.89 10.13,23.93 22.09,23.93 12.89,0 23.01,-11.04 23.01,-23.93l0 -21.17c0,-11.97 -10.13,-22.1 -23.01,-22.1 -11.96,0 -22.09,10.13 -22.09,22.1l0 21.17zm229.2 490.61c36.81,29.46 93.88,63.51 166.61,64.44 44.18,0 81,-12.89 112.29,-35.9 30.38,-23 51.55,-53.39 51.55,-91.12 0,-37.74 -21.17,-72.72 -50.63,-92.05 -31.29,-17.48 -66.27,-30.37 -109.54,-36.81l-1.84 0c-41.42,-6.44 -71.79,-17.49 -92.05,-31.31 -17.49,-13.8 -25.77,-26.69 -25.77,-45.1 0,-18.42 10.13,-36.83 28.53,-51.55 19.33,-15.65 48.79,-25.77 85.6,-25.77 44.18,0 77.32,23.01 110.45,45.11 10.13,6.44 23.94,3.68 30.38,-6.44 6.44,-10.13 3.68,-23.94 -6.44,-31.29 -34.98,-22.09 -76.4,-48.79 -134.39,-48.79 -46.02,0 -83.76,11.96 -110.45,30.38 -28.53,21.17 -48.79,52.46 -48.79,88.36 0,34.98 20.25,64.43 48.79,81 25.77,18.41 61.67,27.61 102.17,34.98l1.84 0.92c44.18,7.37 76.4,18.41 95.73,33.13 23.01,19.33 31.29,34.07 32.22,55.23 0,20.25 -11.96,40.5 -34.05,55.23 -20.25,16.56 -50.63,27.61 -85.6,27.61 -57.07,0 -106.78,-29.46 -138.08,-52.47 -10.13,-8.28 -23.93,-6.44 -31.29,2.77 -7.37,9.2 -6.44,21.17 2.76,29.45zm668.26 64.44c76.4,0 143.6,-40.5 182.26,-102.17 6.44,-11.04 2.76,-23.93 -7.37,-31.29 -9.2,-5.52 -23.01,-3.68 -29.46,7.37 -30.37,50.63 -85.6,81.92 -145.43,81.92 -92.97,0 -170.28,-74.56 -174.89,-173.05l370.04 0c11.96,0 22.09,-8.28 22.09,-20.24l0 -2.76 0 -0.92c-9.2,-117.82 -101.25,-209.87 -217.24,-209.87 -121.51,0 -219.07,101.25 -219.07,226.44 0,123.34 97.57,224.59 219.07,224.59zm0 -406.85c82.84,0 154.64,61.68 169.37,146.36l-341.5 0c16.57,-85.6 87.45,-146.36 172.13,-146.36zm631.44 81.92c0,179.5 150.04,324.93 335.05,324.93 79.16,0 151.88,-26.7 208.03,-69.96 10.13,-7.37 11.96,-23.93 2.76,-32.22 -6.44,-11.04 -21.17,-12.89 -32.22,-5.52 -47.87,40.5 -110.45,62.59 -178.57,62.59 -161.08,0 -289.94,-126.1 -289.94,-279.83 0,-157.4 128.86,-283.5 289.94,-283.5 68.12,0 130.71,23.93 180.41,62.59 9.21,7.37 23.94,6.44 31.31,-4.61 8.28,-8.28 6.44,-23.93 -3.68,-32.21 -56.16,-43.27 -128.87,-70.88 -208.03,-70.88 -185.01,0.92 -335.05,145.43 -335.05,328.6zm1059.46 302.84c0,11.96 10.12,22.09 22.09,22.09 12.89,0 23,-10.13 23,-22.09l0 -251.29c0,-104.01 -84.68,-177.65 -188.69,-177.65 -57.07,0 -108.62,25.77 -142.67,66.27l0 -237.48c0,-11.96 -10.13,-22.09 -23.01,-22.09 -11.96,0 -22.09,10.13 -22.09,22.09l0 341.49 0 7.37 0 251.29c0,2.76 0,4.61 0.92,7.37 0.91,2.76 1.84,4.6 3.68,7.36 4.6,4.61 11.04,7.37 17.48,7.37l2.76 0 1.85 0c0.91,0 1.84,-0.92 1.84,-0.92 6.44,-1.84 11.05,-5.52 13.81,-11.04 0.91,-0.92 0.91,-1.85 1.84,-3.68 0,-0.92 0.92,-1.84 0.92,-3.68l0 -2.76 0 -251.29c0,-79.16 64.44,-132.55 142.67,-132.55 79.16,0 143.6,53.39 143.6,132.55l0 251.29zm211.71 -203.43c0,122.42 95.73,225.52 213.54,225.52 118.75,0 213.55,-103.1 213.55,-225.52 0,-122.42 -94.81,-225.52 -213.55,-225.52 -117.81,0 -213.54,103.1 -213.54,225.52zm44.18 0c0,-100.33 77.31,-182.26 169.36,-182.26 92.05,0 169.37,81.93 169.37,182.26 0,100.33 -77.32,181.33 -169.37,181.33 -92.05,0 -169.36,-81.01 -169.36,-181.33zm553.21 203.43c0,11.96 10.13,22.09 22.09,22.09 12.89,0 23.01,-10.13 23.01,-22.09l0 -406.85c0,-12.89 -10.13,-22.09 -23.01,-22.09 -11.96,0 -22.09,9.2 -22.09,22.09l0 406.85zm0 -532.95c0,12.89 10.13,23.93 22.09,23.93 12.89,0 23.01,-11.04 23.01,-23.93l0 -21.17c0,-11.97 -10.13,-22.1 -23.01,-22.1 -11.96,0 -22.09,10.13 -22.09,22.1l0 21.17zm457.48 555.04c0,0 0,0 0,0 53.39,0 104.01,-18.41 141.75,-47.87 11.05,-8.28 12.89,-22.09 4.61,-32.22 -7.37,-8.28 -20.25,-11.04 -30.37,-3.68 -32.22,24.86 -72.73,39.59 -115.99,39.59 -104.93,0 -187.78,-81.01 -187.78,-182.26 0,-99.4 82.84,-181.33 187.78,-181.33 43.26,0 83.77,14.73 115.99,40.51 10.12,7.36 23,4.6 30.37,-3.68 8.28,-10.13 6.44,-23.94 -2.76,-30.38 -39.59,-31.29 -90.21,-49.7 -143.6,-49.7 -128.86,0 -231.96,99.41 -231.96,224.59 0,127.03 103.1,226.44 231.96,226.44zm498.89 0c76.4,0 143.6,-40.5 182.26,-102.17 6.44,-11.04 2.76,-23.93 -7.37,-31.29 -9.2,-5.52 -23.01,-3.68 -29.46,7.37 -30.37,50.63 -85.6,81.92 -145.43,81.92 -92.97,0 -170.28,-74.56 -174.89,-173.05l370.04 0c11.96,0 22.09,-8.28 22.09,-20.24l0 -2.76 0 -0.92c-9.2,-117.82 -101.25,-209.87 -217.24,-209.87 -121.51,0 -219.07,101.25 -219.07,226.44 0,123.34 97.57,224.59 219.07,224.59zm0 -406.85c82.84,0 154.64,61.68 169.37,146.36l-341.5 0c16.57,-85.6 87.45,-146.36 172.13,-146.36zm345.18 342.42c36.81,29.46 93.88,63.51 166.61,64.44 44.18,0 81,-12.89 112.29,-35.9 30.38,-23 51.55,-53.39 51.55,-91.12 0,-37.74 -21.17,-72.72 -50.63,-92.05 -31.29,-17.48 -66.27,-30.37 -109.54,-36.81l-1.84 0c-41.42,-6.44 -71.79,-17.49 -92.05,-31.31 -17.49,-13.8 -25.77,-26.69 -25.77,-45.1 0,-18.42 10.13,-36.83 28.53,-51.55 19.33,-15.65 48.79,-25.77 85.6,-25.77 44.18,0 77.32,23.01 110.45,45.11 10.13,6.44 23.94,3.68 30.38,-6.44 6.44,-10.13 3.68,-23.94 -6.44,-31.29 -34.98,-22.09 -76.4,-48.79 -134.39,-48.79 -46.02,0 -83.76,11.96 -110.45,30.38 -28.53,21.17 -48.79,52.46 -48.79,88.36 0,34.98 20.25,64.43 48.79,81 25.77,18.41 61.67,27.61 102.17,34.98l1.84 0.92c44.18,7.37 76.4,18.41 95.73,33.13 23.01,19.33 31.29,34.07 32.22,55.23 0,20.25 -11.96,40.5 -34.05,55.23 -20.25,16.56 -50.63,27.61 -85.6,27.61 -57.07,0 -106.78,-29.46 -138.08,-52.47 -10.13,-8.28 -23.93,-6.44 -31.29,2.77 -7.37,9.2 -6.44,21.17 2.76,29.45zm445.5 147.28c0,9.2 7.37,13.81 13.81,13.81 8.28,0 31.29,-12.89 47.87,-29.46 16.57,-16.57 24.85,-44.18 24.85,-95.73l0 -23.01c0,-17.48 -12.89,-30.37 -30.37,-30.37 -17.49,0 -30.38,12.89 -30.38,30.37l0 19.33c0,18.41 11.05,28.53 24.85,32.22 2.77,32.22 -10.12,52.46 -43.26,70.88 -4.61,2.76 -7.37,7.36 -7.37,11.96zm533.88 -104.93c0,11.96 9.2,22.09 21.17,22.09l0.92 0 2.76 0 181.33 0c101.25,0 184.09,-81.92 184.09,-184.09 0,-81 -53.39,-149.12 -126.1,-173.97 36.81,-29.46 61.67,-74.56 61.67,-125.19 0,-89.29 -71.79,-161.08 -160.16,-161.08l-140.84 0 -2.76 0c-11.96,0 -22.09,10.13 -22.09,22.09l0 600.15zm45.11 -23.01l0 -277.98 161.08 0c76.4,0 138.07,62.59 138.99,138.99 -0.92,77.32 -62.59,138.99 -138.99,138.99l-161.08 0zm0 -324.01l0 -230.11 120.58 0c63.51,0 115.05,51.55 115.05,115.97 0,62.6 -51.54,114.14 -115.05,114.14l-120.58 0zm491.53 347.02c0,12.89 10.13,22.09 23.01,22.09 11.04,0 21.17,-9.2 21.17,-22.09l0 -197.91c0,-1.84 0,-3.68 1.85,-7.36 6.44,-18.42 23.93,-64.44 54.3,-104.93 31.31,-40.51 71.8,-73.64 130.71,-73.64 11.96,0 22.09,-10.13 22.09,-22.09 0,-12.89 -10.13,-22.09 -22.09,-22.09 -86.52,0 -146.36,57.07 -180.41,110.45 -2.76,3.68 -4.6,7.37 -6.44,11.05l0 -99.41c0,-12.89 -10.13,-22.09 -21.17,-22.09 -12.89,0 -23.01,9.2 -23.01,22.09l0 405.93zm405.01 0c0,11.96 10.13,22.09 22.09,22.09 12.89,0 23.01,-10.13 23.01,-22.09l0 -406.85c0,-12.89 -10.13,-22.09 -23.01,-22.09 -11.96,0 -22.09,9.2 -22.09,22.09l0 406.85zm0 -532.95c0,12.89 10.13,23.93 22.09,23.93 12.89,0 23.01,-11.04 23.01,-23.93l0 -21.17c0,-11.97 -10.13,-22.1 -23.01,-22.1 -11.96,0 -22.09,10.13 -22.09,22.1l0 21.17zm651.7 126.1c0,-11.96 -10.13,-22.09 -21.17,-22.09 -12.89,0 -23.01,10.13 -23.01,22.09l0 66.27c-37.74,-53.39 -99.41,-88.36 -168.45,-88.36 -117.82,0 -211.71,102.17 -211.71,223.68 0,124.26 93.88,224.59 211.71,224.59 69.03,0 130.71,-34.05 168.45,-88.36l0 55.22c0,92.97 -74.56,167.53 -168.45,167.53 -27.61,0 -50.63,-5.53 -73.64,-16.57 -11.04,-6.44 -23.93,-1.85 -29.46,10.13 -5.52,10.12 0,23 9.2,29.45 29.46,12.89 60.75,21.18 93.89,21.18 117.82,0 212.63,-94.82 212.63,-211.72l0 -393.04zm-212.63 382.91c-92.05,0 -167.52,-80.07 -167.52,-181.32 0,-100.34 75.48,-179.5 167.52,-179.5 92.97,0 168.45,79.16 168.45,179.5 0,101.25 -75.48,181.32 -168.45,181.32zm757.56 23.94c0,11.96 10.12,22.09 22.09,22.09 12.89,0 23,-10.13 23,-22.09l0 -251.29c0,-104.01 -84.68,-177.65 -188.69,-177.65 -57.07,0 -108.62,25.77 -142.67,66.27l0 -237.48c0,-11.96 -10.13,-22.09 -23.01,-22.09 -11.96,0 -22.09,10.13 -22.09,22.09l0 341.49 0 7.37 0 251.29c0,2.76 0,4.61 0.92,7.37 0.91,2.76 1.84,4.6 3.68,7.36 4.6,4.61 11.04,7.37 17.48,7.37l2.76 0 1.85 0c0.91,0 1.84,-0.92 1.84,-0.92 6.44,-1.84 11.05,-5.52 13.81,-11.04 0.91,-0.92 0.91,-1.85 1.84,-3.68 0,-0.92 0.92,-1.84 0.92,-3.68l0 -2.76 0 -251.29c0,-79.16 64.44,-132.55 142.67,-132.55 79.16,0 143.6,53.39 143.6,132.55l0 251.29zm368.18 -428.94l-57.98 0 0 -167.52c0,-11.05 -11.97,-22.09 -23.94,-22.09 -11.04,0 -22.09,11.04 -22.09,22.09l0 167.52 -56.15 0c-22.09,0 -22.09,11.05 -22.09,22.09 0,11.05 0,22.09 22.09,22.09l56.15 0 0 328.61c0,45.1 34.05,78.24 79.16,78.24 11.05,0 23.01,-11.05 23.01,-22.09 0,-11.05 -11.96,-23.01 -23.01,-23.01 -11.04,0 -33.13,-11.04 -33.13,-33.13l0 -328.61 57.98 0c11.05,0 22.09,-11.04 22.09,-22.09 0,-11.04 -11.04,-22.09 -22.09,-22.09zm490.62 126.1c0,179.5 150.04,324.93 335.05,324.93 79.16,0 151.88,-26.7 208.03,-69.96 10.13,-7.37 11.96,-23.93 2.76,-32.22 -6.44,-11.04 -21.17,-12.89 -32.22,-5.52 -47.87,40.5 -110.45,62.59 -178.57,62.59 -161.08,0 -289.94,-126.1 -289.94,-279.83 0,-157.4 128.86,-283.5 289.94,-283.5 68.12,0 130.71,23.93 180.41,62.59 9.21,7.37 23.94,6.44 31.31,-4.61 8.28,-8.28 6.44,-23.93 -3.68,-32.21 -56.16,-43.27 -128.87,-70.88 -208.03,-70.88 -185.01,0.92 -335.05,145.43 -335.05,328.6zm1084.31 -126.1c-11.96,0 -22.09,9.2 -22.09,22.09l0 66.27c-38.66,-53.39 -100.34,-88.36 -169.37,-88.36 -118.74,0 -213.55,102.17 -213.55,225.52 0,123.34 94.82,225.52 213.55,225.52 69.03,0 130.71,-35.9 169.37,-89.29l0 67.2c0,11.96 10.13,22.09 22.09,22.09 11.96,0 22.09,-10.13 22.09,-22.09l0 -406.85c0,-12.89 -10.13,-22.09 -22.09,-22.09zm-191.46 406.85c-92.05,0 -169.37,-80.08 -169.37,-181.33 0,-101.25 77.32,-182.26 169.37,-182.26 92.97,0 169.37,81.01 169.37,182.26 0,101.25 -76.4,181.33 -169.37,181.33zm405 22.09c0,12.89 10.13,22.09 23.01,22.09 11.04,0 21.17,-9.2 21.17,-22.09l0 -197.91c0,-1.84 0,-3.68 1.85,-7.36 6.44,-18.42 23.93,-64.44 54.3,-104.93 31.31,-40.51 71.8,-73.64 130.71,-73.64 11.96,0 22.09,-10.13 22.09,-22.09 0,-12.89 -10.13,-22.09 -22.09,-22.09 -86.52,0 -146.36,57.07 -180.41,110.45 -2.76,3.68 -4.6,7.37 -6.44,11.05l0 -99.41c0,-12.89 -10.13,-22.09 -21.17,-22.09 -12.89,0 -23.01,9.2 -23.01,22.09l0 405.93zm544.92 22.09c76.4,0 143.6,-40.5 182.26,-102.17 6.44,-11.04 2.76,-23.93 -7.37,-31.29 -9.2,-5.52 -23.01,-3.68 -29.46,7.37 -30.37,50.63 -85.6,81.92 -145.43,81.92 -92.97,0 -170.28,-74.56 -174.89,-173.05l370.04 0c11.96,0 22.09,-8.28 22.09,-20.24l0 -2.76 0 -0.92c-9.2,-117.82 -101.25,-209.87 -217.24,-209.87 -121.51,0 -219.07,101.25 -219.07,226.44 0,123.34 97.57,224.59 219.07,224.59zm0 -406.85c82.84,0 154.64,61.68 169.37,146.36l-341.5 0c16.57,-85.6 87.45,-146.36 172.13,-146.36zm560.56 406.85c76.4,0 143.6,-40.5 182.26,-102.17 6.44,-11.04 2.76,-23.93 -7.37,-31.29 -9.2,-5.52 -23.01,-3.68 -29.46,7.37 -30.37,50.63 -85.6,81.92 -145.43,81.92 -92.97,0 -170.28,-74.56 -174.89,-173.05l370.04 0c11.96,0 22.09,-8.28 22.09,-20.24l0 -2.76 0 -0.92c-9.2,-117.82 -101.25,-209.87 -217.24,-209.87 -121.51,0 -219.07,101.25 -219.07,226.44 0,123.34 97.57,224.59 219.07,224.59zm0 -406.85c82.84,0 154.64,61.68 169.37,146.36l-341.5 0c16.57,-85.6 87.45,-146.36 172.13,-146.36zm354.38 384.76c0,12.89 10.13,22.09 23.01,22.09 11.04,0 21.17,-9.2 21.17,-22.09l0 -197.91c0,-1.84 0,-3.68 1.85,-7.36 6.44,-18.42 23.93,-64.44 54.3,-104.93 31.31,-40.51 71.8,-73.64 130.71,-73.64 11.96,0 22.09,-10.13 22.09,-22.09 0,-12.89 -10.13,-22.09 -22.09,-22.09 -86.52,0 -146.36,57.07 -180.41,110.45 -2.76,3.68 -4.6,7.37 -6.44,11.05l0 -99.41c0,-12.89 -10.13,-22.09 -21.17,-22.09 -12.89,0 -23.01,9.2 -23.01,22.09l0 405.93zm375.56 -42.35c36.81,29.46 93.88,63.51 166.61,64.44 44.18,0 81,-12.89 112.29,-35.9 30.38,-23 51.55,-53.39 51.55,-91.12 0,-37.74 -21.17,-72.72 -50.63,-92.05 -31.29,-17.48 -66.27,-30.37 -109.54,-36.81l-1.84 0c-41.42,-6.44 -71.79,-17.49 -92.05,-31.31 -17.49,-13.8 -25.77,-26.69 -25.77,-45.1 0,-18.42 10.13,-36.83 28.53,-51.55 19.33,-15.65 48.79,-25.77 85.6,-25.77 44.18,0 77.32,23.01 110.45,45.11 10.13,6.44 23.94,3.68 30.38,-6.44 6.44,-10.13 3.68,-23.94 -6.44,-31.29 -34.98,-22.09 -76.4,-48.79 -134.39,-48.79 -46.02,0 -83.76,11.96 -110.45,30.38 -28.53,21.17 -48.79,52.46 -48.79,88.36 0,34.98 20.25,64.43 48.79,81 25.77,18.41 61.67,27.61 102.17,34.98l1.84 0.92c44.18,7.37 76.4,18.41 95.73,33.13 23.01,19.33 31.29,34.07 32.22,55.23 0,20.25 -11.96,40.5 -34.05,55.23 -20.25,16.56 -50.63,27.61 -85.6,27.61 -57.07,0 -106.78,-29.46 -138.08,-52.47 -10.13,-8.28 -23.93,-6.44 -31.29,2.77 -7.37,9.2 -6.44,21.17 2.76,29.45z"/>
 </g>
</svg>
