<svg width="64" height="64" viewBox="0 0 64 64" fill="none" xmlns="http://www.w3.org/2000/svg">
<rect x="0.5" y="0.5" width="63" height="63" rx="31.5" stroke="#5C6267"/>
<g clip-path="url(#clip0_10699_44933)">
<path d="M45.6313 16H18.3625C17.0562 16 16 17.0313 16 18.3063V45.6875C16 46.9625 17.0562 48 18.3625 48H45.6313C46.9375 48 48 46.9625 48 45.6938V18.3063C48 17.0313 46.9375 16 45.6313 16ZM25.4937 43.2687H20.7438V27.9937H25.4937V43.2687ZM23.1188 25.9125C21.5938 25.9125 20.3625 24.6812 20.3625 23.1625C20.3625 21.6438 21.5938 20.4125 23.1188 20.4125C24.6375 20.4125 25.8687 21.6438 25.8687 23.1625C25.8687 24.675 24.6375 25.9125 23.1188 25.9125ZM43.2687 43.2687H38.525V35.8438C38.525 34.075 38.4937 31.7937 36.0562 31.7937C33.5875 31.7937 33.2125 33.725 33.2125 35.7188V43.2687H28.475V27.9937H33.025V30.0813H33.0875C33.7188 28.8813 35.2688 27.6125 37.575 27.6125C42.3813 27.6125 43.2687 30.775 43.2687 34.8875V43.2687Z" fill="white"/>
</g>
<defs>
<clipPath id="clip0_10699_44933">
<rect width="32" height="32" fill="white" transform="translate(16 16)"/>
</clipPath>
</defs>
</svg>
