<svg width="64" height="64" viewBox="0 0 64 64" fill="none" xmlns="http://www.w3.org/2000/svg">
<rect x="0.5" y="0.5" width="63" height="63" rx="31.5" stroke="#5C6267"/>
<path d="M38.6667 20.6667H25.3334C21.3334 20.6667 18.6667 22.6667 18.6667 27.3333V36.6667C18.6667 41.3333 21.3334 43.3333 25.3334 43.3333H38.6667C42.6667 43.3333 45.3334 41.3333 45.3334 36.6667V27.3333C45.3334 22.6667 42.6667 20.6667 38.6667 20.6667ZM39.2934 28.7867L35.1201 32.12C34.2401 32.8267 33.1201 33.1733 32.0001 33.1733C30.8801 33.1733 29.7467 32.8267 28.8801 32.12L24.7067 28.7867C24.2801 28.44 24.2134 27.8 24.5467 27.3733C24.8934 26.9467 25.5201 26.8667 25.9467 27.2133L30.1201 30.5467C31.1334 31.36 32.8534 31.36 33.8667 30.5467L38.0401 27.2133C38.4667 26.8667 39.1067 26.9333 39.4401 27.3733C39.7867 27.8 39.7201 28.44 39.2934 28.7867Z" fill="white"/>
</svg>
