<?xml version="1.0" encoding="UTF-8"?>
<!DOCTYPE svg PUBLIC "-//W3C//DTD SVG 1.1//EN" "http://www.w3.org/Graphics/SVG/1.1/DTD/svg11.dtd">
<!-- Creator: CorelDRAW -->
<svg xmlns="http://www.w3.org/2000/svg" xml:space="preserve" width="114.676mm" height="67.7319mm" version="1.1" style="shape-rendering:geometricPrecision; text-rendering:geometricPrecision; image-rendering:optimizeQuality; fill-rule:evenodd; clip-rule:evenodd"
viewBox="0 0 12159.58 7181.88"
 xmlns:xlink="http://www.w3.org/1999/xlink"
 xmlns:xodm="http://www.corel.com/coreldraw/odm/2003">
 <defs>
  <style type="text/css">
   <![CDATA[
    .fil1 {fill:white;fill-rule:nonzero}
    .fil0 {fill:url(#id0);fill-rule:nonzero}
   ]]>
  </style>
  <linearGradient id="id0" gradientUnits="userSpaceOnUse" x1="5733.81" y1="3396.53" x2="5733.81" y2="50.84">
   <stop offset="0" style="stop-opacity:1; stop-color:#A8518A"/>
   <stop offset="1" style="stop-opacity:1; stop-color:#692D51"/>
  </linearGradient>
 </defs>
 <g id="Layer_x0020_1">
  <metadata id="CorelCorpID_0Corel-Layer"/>
  <path class="fil0" d="M6625.44 1429.93c107.03,-107.03 254.91,-173.24 418.26,-173.24 163.33,0 311.23,66.21 418.25,173.24 107.03,107.03 173.24,254.92 173.24,418.26 0,163.33 -66.21,311.22 -173.24,418.25 -107.02,107.03 -254.92,173.24 -418.25,173.24 -163.36,0 -311.23,-66.21 -418.26,-173.24 -107.02,-107.03 -173.23,-254.91 -173.23,-418.25 0,-163.36 66.21,-311.23 173.23,-418.26zm-414.55 733.08c-14.31,-170.71 -116.92,-194.11 -231.16,-220.15 -60.58,-13.81 -127.97,-29.17 -148.64,-116.53 -10.04,-43.12 -48.69,-72.15 -91.2,-71.71 -42.52,-0.43 -81.17,28.59 -91.21,71.71 -20.67,87.36 -88.06,102.73 -148.64,116.53 -114.24,26.04 -216.85,49.43 -231.16,220.15 -0.68,8.27 -0.25,16.37 1.16,24.17 48.34,451.16 175.83,805.23 354.63,1073.85 -171.74,215.3 -383.72,355.53 -612.14,431.06 -329.47,108.94 -694.37,85.39 -1022.89,-39.99 -329.21,-125.64 -620.75,-352.93 -802.67,-651.13 -276.11,-452.63 -298.5,-1073.27 186.49,-1755.72 29.64,-41.66 19.9,-99.47 -21.76,-129.12 -41.66,-29.64 -99.48,-19.9 -129.12,21.76 -535.75,753.88 -505.68,1448.25 -193.76,1959.56 203.92,334.28 528.86,588.37 894.8,728.03 366.65,139.92 775.67,165.64 1146.93,42.88 248.66,-82.21 479.81,-230.2 669.34,-453.93 189.53,223.72 420.67,371.71 669.33,453.93 371.26,122.76 780.27,97.04 1146.93,-42.88 365.94,-139.66 690.88,-393.75 894.8,-728.03 311.92,-511.31 341.99,-1205.68 -193.76,-1959.56 -29.64,-41.66 -87.46,-51.39 -129.12,-21.76 -41.66,29.65 -51.41,87.46 -21.76,129.12 484.98,682.46 462.61,1303.09 186.49,1755.72 -181.91,298.2 -473.45,525.49 -802.67,651.13 -328.51,125.37 -693.42,148.92 -1022.89,39.99 -228.43,-75.53 -440.39,-215.77 -612.14,-431.06 178.79,-268.63 306.29,-622.68 354.63,-1073.85 1.41,-7.79 1.83,-15.89 1.16,-24.17zm-471 -125.66c57.75,53.88 130.78,70.54 199.21,86.14 41.62,9.49 79.24,18.07 85.94,48.86 -41.44,381.69 -143.08,686.25 -285.15,922.46 -142.07,-236.19 -243.72,-540.77 -285.16,-922.46 6.7,-30.79 44.32,-39.37 85.94,-48.86 68.42,-15.6 141.46,-32.27 199.22,-86.14zm64.13 -765.59c378.09,-430.07 922.26,-497.01 1461.25,-563.3 544.21,-66.93 1083.47,-133.26 1483.72,-552.02 35.25,-37.05 33.78,-95.67 -3.27,-130.93 -37.05,-35.25 -95.69,-33.78 -130.93,3.27 -353.85,370.2 -860.6,432.53 -1372.01,495.43 -543.14,66.8 -1091.2,134.28 -1508.98,552.08 -417.78,-417.8 -965.85,-485.28 -1508.98,-552.08 -511.41,-62.9 -1018.17,-125.24 -1372.02,-495.43 -35.25,-37.05 -93.87,-38.51 -130.93,-3.27 -37.05,35.26 -38.51,93.88 -3.27,130.93 400.26,418.76 939.52,485.09 1483.72,552.02 538.99,66.28 1083.17,133.22 1461.27,563.3 1.69,1.95 3.46,3.86 5.33,5.7l0.2 0.19 1.63 1.56 0.88 0.81c3.35,3.04 6.87,5.8 10.64,8.33l1.81 1.18 0.21 0.14 1.66 1.03 0.51 0.31 1.44 0.84 0.21 0.13 1.21 0.68 0.27 0.15 1.55 0.82 0.29 0.15c1.25,0.65 2.51,1.25 3.79,1.84l0.31 0.14 1.72 0.75 0.34 0.15c10.25,4.36 21.09,6.78 31.98,7.25l0.59 0.03 1.81 0.04 0.3 0.01 1.53 0.01 1.53 -0.01 0.3 -0.01 1.81 -0.04 0.58 -0.03c10.89,-0.49 21.73,-2.89 31.98,-7.25l0.34 -0.15 1.72 -0.75 0.31 -0.14c1.27,-0.59 2.53,-1.2 3.79,-1.84l0.29 -0.15 1.55 -0.82 0.27 -0.15 1.22 -0.68 0.2 -0.13 1.44 -0.84 0.52 -0.31 1.65 -1.03 0.22 -0.14 1.9 -1.24c3.67,-2.47 7.19,-5.23 10.55,-8.27l0.89 -0.83 1.62 -1.54 0.19 -0.19c1.88,-1.84 3.66,-3.75 5.34,-5.7zm-1170.52 391.42c0,64.28 -52.11,116.39 -116.39,116.39 -64.29,0 -116.39,-52.12 -116.39,-116.39 0,-64.28 52.11,-116.39 116.39,-116.39 64.29,0 116.39,52.12 116.39,116.39zm-209.58 572.74c214.15,0 387.73,-173.6 387.73,-387.73 0,-214.14 -173.59,-387.73 -387.73,-387.73 -214.15,0 -387.73,173.6 -387.73,387.73 0,214.14 173.59,387.73 387.73,387.73zm418.25 -806c107.03,107.03 173.24,254.91 173.24,418.26 0,163.35 -66.21,311.22 -173.24,418.25 -107.03,107.03 -254.91,173.24 -418.25,173.24 -163.35,0 -311.23,-66.21 -418.26,-173.24 -107.02,-107.03 -173.24,-254.92 -173.24,-418.25 0,-163.35 66.22,-311.23 173.24,-418.26 107.03,-107.03 254.92,-173.24 418.26,-173.24 163.35,0 311.22,66.21 418.25,173.24zm358.94 418.26c0,-214.61 -86.99,-408.91 -227.64,-549.56 -140.64,-140.64 -334.94,-227.63 -549.54,-227.63 -214.61,0 -408.91,86.99 -549.56,227.63 -140.63,140.65 -227.63,334.95 -227.63,549.56 0,214.6 87,408.9 227.63,549.55 140.65,140.64 334.95,227.63 549.56,227.63 214.6,0 408.9,-86.99 549.54,-227.63 140.65,-140.65 227.64,-334.95 227.64,-549.55zm1454.86 0c0,214.14 173.59,387.73 387.73,387.73 214.15,0 387.73,-173.6 387.73,-387.73 0,-214.14 -173.59,-387.73 -387.73,-387.73 -214.15,0 -387.73,173.6 -387.73,387.73zm480.92 -68.61c-64.29,0 -116.39,-52.12 -116.39,-116.39 0,-64.28 52.11,-116.39 116.39,-116.39 64.29,0 116.39,52.12 116.39,116.39 0,64.28 -52.11,116.39 -116.39,116.39zm-642.74 -480.95c-140.64,140.65 -227.64,334.95 -227.64,549.56 0,214.6 87,408.9 227.64,549.55 140.64,140.64 334.94,227.63 549.55,227.63 214.6,0 408.9,-86.99 549.55,-227.63 140.64,-140.65 227.63,-334.95 227.63,-549.55 0,-214.61 -86.99,-408.91 -227.63,-549.56 -140.65,-140.64 -334.95,-227.63 -549.55,-227.63 -214.61,0 -408.91,86.99 -549.55,227.63z"/>
  <path class="fil1" d="M-0 5389.98c0,464.03 339.7,788.19 772.65,788.19 335.27,0 601.7,-166.53 717.15,-464.04l-242 0c-84.37,184.28 -248.68,288.62 -475.15,288.62 -324.16,0 -566.17,-235.34 -566.17,-612.78 0,-379.67 242.01,-615.02 566.17,-615.02 226.47,0 390.78,104.36 475.15,290.85l242 0c-115.45,-299.73 -381.88,-468.47 -717.15,-468.47 -432.95,0 -772.65,328.6 -772.65,792.64zm11821.39 -534.73l43.53 0 0 -247.29 110.49 247.29 30.61 0 110.03 -246.82 0 246.82 43.53 0 0 -331.01 -46.4 0 -122.46 273.61 -122.46 -273.61 -46.87 0 0 331.01zm-279.35 -298l91.36 0 0 298 43.53 0 0 -298 90.88 0 0 -35.39 -225.77 0 0 35.39zm-10732.7 2013.95c-8.28,3.45 -12.42,13.8 -8.28,22.08l186.31 443c0.69,3.46 2.07,6.21 4.14,8.28l0.69 0.69 1.39 1.39c2.76,2.07 6.2,3.45 10.35,3.45 3.45,0 6.89,-0.69 9.66,-2.76 0,0 0.69,-0.69 1.38,-0.69 1.38,-1.39 2.76,-2.77 3.45,-4.84 0.69,-0.69 1.38,-2.07 1.38,-3.45l123.53 -291.89 122.83 291.89c0.69,0.69 0.69,1.38 0.69,2.07 0.69,1.38 2.07,3.45 2.76,4.14 0.69,1.39 2.08,2.08 2.77,2.77 2.76,2.07 5.51,2.76 8.28,2.76l2.07 0 1.38 0c4.84,-0.69 11.04,-4.84 13.81,-11.04l187.68 -445.77c4.15,-8.28 0,-18.63 -8.27,-22.08 -9.67,-4.15 -18.64,0 -22.78,8.27l-172.51 410.57 -122.14 -290.5c-3.45,-6.21 -9.66,-10.35 -17.25,-10.35 -6.2,0 -12.42,4.14 -15.87,10.35l-122.83 290.5 -172.52 -410.57c-3.45,-8.27 -13.8,-12.42 -22.08,-8.27zm761.12 462.32c0,8.97 7.59,16.56 16.56,16.56 9.66,0 17.25,-7.59 17.25,-16.56l0 -305c0,-9.66 -7.59,-16.56 -17.25,-16.56 -8.97,0 -16.56,6.9 -16.56,16.56l0 305zm0 -399.53c0,9.66 7.59,17.94 16.56,17.94 9.66,0 17.25,-8.28 17.25,-17.94l0 -15.87c0,-8.97 -7.59,-16.56 -17.25,-16.56 -8.97,0 -16.56,7.59 -16.56,16.56l0 15.87zm171.83 367.79c27.6,22.08 70.39,47.61 124.9,48.3 33.11,0 60.72,-9.66 84.18,-26.91 22.78,-17.25 38.64,-40.02 38.64,-68.32 0,-28.29 -15.86,-54.51 -37.95,-69 -23.45,-13.12 -49.68,-22.78 -82.11,-27.6l-1.38 0c-31.06,-4.84 -53.82,-13.12 -69.01,-23.47 -13.11,-10.35 -19.32,-20.01 -19.32,-33.81 0,-13.8 7.59,-27.6 21.39,-38.64 14.49,-11.73 36.57,-19.32 64.18,-19.32 33.11,0 57.96,17.25 82.8,33.81 7.59,4.82 17.94,2.76 22.77,-4.84 4.84,-7.59 2.77,-17.94 -4.82,-23.47 -26.22,-16.55 -57.28,-36.57 -100.74,-36.57 -34.5,0 -62.79,8.97 -82.81,22.78 -21.39,15.87 -36.57,39.33 -36.57,66.24 0,26.22 15.18,48.31 36.57,60.73 19.32,13.81 46.23,20.7 76.6,26.22l1.38 0.69c33.13,5.52 57.27,13.81 71.76,24.84 17.25,14.48 23.47,25.53 24.15,41.4 0,15.18 -8.97,30.37 -25.53,41.41 -15.18,12.42 -37.95,20.7 -64.17,20.7 -42.78,0 -80.05,-22.08 -103.51,-39.33 -7.59,-6.21 -17.94,-4.84 -23.45,2.07 -5.52,6.9 -4.84,15.87 2.07,22.09zm500.97 48.3c57.27,0 107.65,-30.36 136.62,-76.6 4.84,-8.27 2.07,-17.94 -5.52,-23.45 -6.89,-4.15 -17.25,-2.76 -22.08,5.51 -22.78,37.96 -64.17,61.41 -109.02,61.41 -69.7,0 -127.65,-55.89 -131.11,-129.72l277.4 0c8.97,0 16.56,-6.21 16.56,-15.18l0 -2.07 0 -0.69c-6.9,-88.33 -75.91,-157.33 -162.85,-157.33 -91.08,0 -164.24,75.91 -164.24,169.75 0,92.47 73.15,168.37 164.24,168.37zm0 -305c62.1,0 115.93,46.23 126.97,109.71l-256.01 0c12.43,-64.17 65.56,-109.71 129.04,-109.71zm473.37 61.41c0,134.56 112.47,243.58 251.17,243.58 59.34,0 113.85,-20.01 155.94,-52.44 7.59,-5.51 8.97,-17.94 2.07,-24.15 -4.82,-8.27 -15.86,-9.66 -24.14,-4.14 -35.88,30.36 -82.81,46.92 -133.87,46.92 -120.76,0 -217.37,-94.53 -217.37,-209.77 0,-117.99 96.61,-212.53 217.37,-212.53 51.06,0 97.99,17.94 135.25,46.92 6.9,5.52 17.94,4.84 23.45,-3.45 6.21,-6.21 4.84,-17.94 -2.76,-24.15 -42.1,-32.43 -96.61,-53.13 -155.94,-53.13 -138.7,0.69 -251.17,109.02 -251.17,246.35zm794.24 227.02c0,8.97 7.59,16.56 16.56,16.56 9.66,0 17.25,-7.59 17.25,-16.56l0 -188.38c0,-77.98 -63.48,-133.18 -141.46,-133.18 -42.78,0 -81.42,19.32 -106.96,49.69l0 -178.03c0,-8.97 -7.59,-16.56 -17.25,-16.56 -8.97,0 -16.57,7.59 -16.57,16.56l0 256.01 0 5.51 0 188.38c0,2.07 0,3.46 0.69,5.52 0.69,2.07 1.38,3.45 2.77,5.51 3.46,3.46 8.28,5.52 13.12,5.52l2.07 0 1.38 0c0.69,0 1.39,-0.69 1.39,-0.69 4.82,-1.38 8.27,-4.15 10.35,-8.28 0.69,-0.69 0.69,-1.38 1.38,-2.76 0,-0.69 0.69,-1.38 0.69,-2.77l0 -2.07 0 -188.38c0,-59.34 48.3,-99.36 106.96,-99.36 59.34,0 107.65,40.03 107.65,99.36l0 188.38zm158.7 -152.5c0,91.77 71.76,169.06 160.09,169.06 89.02,0 160.09,-77.29 160.09,-169.06 0,-91.77 -71.07,-169.06 -160.09,-169.06 -88.33,0 -160.09,77.29 -160.09,169.06zm33.13 0c0,-75.21 57.97,-136.62 126.97,-136.62 69.01,0 126.97,61.41 126.97,136.62 0,75.22 -57.96,135.94 -126.97,135.94 -69,0 -126.97,-60.72 -126.97,-135.94zm414.71 152.5c0,8.97 7.59,16.56 16.56,16.56 9.66,0 17.25,-7.59 17.25,-16.56l0 -305c0,-9.66 -7.59,-16.56 -17.25,-16.56 -8.97,0 -16.56,6.9 -16.56,16.56l0 305zm0 -399.53c0,9.66 7.59,17.94 16.56,17.94 9.66,0 17.25,-8.28 17.25,-17.94l0 -15.87c0,-8.97 -7.59,-16.56 -17.25,-16.56 -8.97,0 -16.56,7.59 -16.56,16.56l0 15.87zm342.96 416.09c0,0 0,0 0,0 40.02,0 77.98,-13.81 106.27,-35.88 8.28,-6.21 9.66,-16.56 3.45,-24.15 -5.52,-6.2 -15.18,-8.28 -22.77,-2.76 -24.15,18.63 -54.52,29.67 -86.95,29.67 -78.67,0 -140.77,-60.72 -140.77,-136.62 0,-74.52 62.1,-135.94 140.77,-135.94 32.43,0 62.79,11.04 86.95,30.36 7.58,5.52 17.24,3.46 22.77,-2.76 6.21,-7.59 4.84,-17.94 -2.07,-22.78 -29.67,-23.45 -67.63,-37.26 -107.65,-37.26 -96.61,0 -173.9,74.53 -173.9,168.37 0,95.23 77.29,169.75 173.9,169.75zm374 0c57.27,0 107.65,-30.36 136.62,-76.6 4.84,-8.27 2.07,-17.94 -5.52,-23.45 -6.89,-4.15 -17.25,-2.76 -22.08,5.51 -22.78,37.96 -64.17,61.41 -109.02,61.41 -69.7,0 -127.65,-55.89 -131.11,-129.72l277.4 0c8.97,0 16.56,-6.21 16.56,-15.18l0 -2.07 0 -0.69c-6.9,-88.33 -75.91,-157.33 -162.85,-157.33 -91.08,0 -164.24,75.91 -164.24,169.75 0,92.47 73.15,168.37 164.24,168.37zm0 -305c62.1,0 115.93,46.23 126.97,109.71l-256.01 0c12.43,-64.17 65.56,-109.71 129.04,-109.71zm258.77 256.7c27.6,22.08 70.39,47.61 124.9,48.3 33.11,0 60.72,-9.66 84.18,-26.91 22.78,-17.25 38.64,-40.02 38.64,-68.32 0,-28.29 -15.86,-54.51 -37.95,-69 -23.45,-13.12 -49.68,-22.78 -82.11,-27.6l-1.38 0c-31.06,-4.84 -53.82,-13.12 -69.01,-23.47 -13.11,-10.35 -19.32,-20.01 -19.32,-33.81 0,-13.8 7.59,-27.6 21.39,-38.64 14.49,-11.73 36.57,-19.32 64.18,-19.32 33.11,0 57.96,17.25 82.8,33.81 7.59,4.82 17.94,2.76 22.77,-4.84 4.84,-7.59 2.77,-17.94 -4.82,-23.47 -26.22,-16.55 -57.28,-36.57 -100.74,-36.57 -34.5,0 -62.79,8.97 -82.81,22.78 -21.39,15.87 -36.57,39.33 -36.57,66.24 0,26.22 15.18,48.31 36.57,60.73 19.32,13.81 46.23,20.7 76.6,26.22l1.38 0.69c33.13,5.52 57.27,13.81 71.76,24.84 17.25,14.48 23.47,25.53 24.15,41.4 0,15.18 -8.97,30.37 -25.53,41.41 -15.18,12.42 -37.95,20.7 -64.17,20.7 -42.78,0 -80.05,-22.08 -103.51,-39.33 -7.59,-6.21 -17.94,-4.84 -23.45,2.07 -5.52,6.9 -4.84,15.87 2.07,22.09zm333.98 110.4c0,6.9 5.52,10.35 10.35,10.35 6.21,0 23.47,-9.66 35.88,-22.08 12.44,-12.43 18.64,-33.13 18.64,-71.76l0 -17.25c0,-13.12 -9.66,-22.78 -22.78,-22.78 -13.12,0 -22.78,9.66 -22.78,22.78l0 14.48c0,13.81 8.28,21.4 18.63,24.15 2.08,24.15 -7.58,39.33 -32.43,53.13 -3.46,2.07 -5.52,5.52 -5.52,8.97zm400.24 -78.67c0,8.97 6.9,16.56 15.87,16.56l0.69 0 2.07 0 135.94 0c75.91,0 138.01,-61.41 138.01,-138 0,-60.73 -40.03,-111.79 -94.54,-130.42 27.6,-22.08 46.23,-55.89 46.23,-93.84 0,-66.94 -53.82,-120.76 -120.06,-120.76l-105.58 0 -2.07 0c-8.97,0 -16.56,7.59 -16.56,16.56l0 449.9zm33.81 -17.25l0 -208.39 120.75 0c57.28,0 103.51,46.92 104.2,104.2 -0.69,57.96 -46.92,104.19 -104.2,104.19l-120.75 0zm0 -242.89l0 -172.51 90.39 0c47.61,0 86.25,38.64 86.25,86.95 0,46.92 -38.64,85.56 -86.25,85.56l-90.39 0zm368.48 260.14c0,9.66 7.59,16.56 17.25,16.56 8.28,0 15.87,-6.9 15.87,-16.56l0 -148.35c0,-1.39 0,-2.77 1.38,-5.52 4.84,-13.81 17.94,-48.3 40.72,-78.67 23.45,-30.36 53.82,-55.2 97.98,-55.2 8.97,0 16.56,-7.59 16.56,-16.56 0,-9.66 -7.59,-16.56 -16.56,-16.56 -64.86,0 -109.71,42.78 -135.25,82.81 -2.07,2.76 -3.45,5.51 -4.82,8.28l0 -74.53c0,-9.66 -7.59,-16.56 -15.87,-16.56 -9.66,0 -17.25,6.9 -17.25,16.56l0 304.31zm303.62 0c0,8.97 7.59,16.56 16.56,16.56 9.66,0 17.25,-7.59 17.25,-16.56l0 -305c0,-9.66 -7.59,-16.56 -17.25,-16.56 -8.97,0 -16.56,6.9 -16.56,16.56l0 305zm0 -399.53c0,9.66 7.59,17.94 16.56,17.94 9.66,0 17.25,-8.28 17.25,-17.94l0 -15.87c0,-8.97 -7.59,-16.56 -17.25,-16.56 -8.97,0 -16.56,7.59 -16.56,16.56l0 15.87zm488.55 94.53c0,-8.97 -7.59,-16.56 -15.87,-16.56 -9.66,0 -17.25,7.59 -17.25,16.56l0 49.69c-28.29,-40.03 -74.52,-66.25 -126.28,-66.25 -88.33,0 -158.7,76.6 -158.7,167.68 0,93.15 70.37,168.37 158.7,168.37 51.76,0 97.99,-25.53 126.28,-66.25l0 41.41c0,69.7 -55.89,125.59 -126.28,125.59 -20.7,0 -37.95,-4.14 -55.2,-12.42 -8.28,-4.84 -17.94,-1.39 -22.08,7.58 -4.15,7.59 0,17.25 6.89,22.09 22.09,9.66 45.55,15.87 70.39,15.87 88.33,0 159.4,-71.07 159.4,-158.71l0 -294.65zm-159.4 287.06c-69,0 -125.59,-60.04 -125.59,-135.94 0,-75.21 56.59,-134.56 125.59,-134.56 69.7,0 126.28,59.35 126.28,134.56 0,75.9 -56.58,135.94 -126.28,135.94zm567.91 17.94c0,8.97 7.59,16.56 16.56,16.56 9.66,0 17.25,-7.59 17.25,-16.56l0 -188.38c0,-77.98 -63.48,-133.18 -141.46,-133.18 -42.78,0 -81.42,19.32 -106.96,49.69l0 -178.03c0,-8.97 -7.59,-16.56 -17.25,-16.56 -8.97,0 -16.56,7.59 -16.56,16.56l0 256.01 0 5.51 0 188.38c0,2.07 0,3.46 0.69,5.52 0.69,2.07 1.38,3.45 2.77,5.51 3.45,3.46 8.27,5.52 13.11,5.52l2.07 0 1.38 0c0.69,0 1.39,-0.69 1.39,-0.69 4.82,-1.38 8.27,-4.15 10.35,-8.28 0.69,-0.69 0.69,-1.38 1.38,-2.76 0,-0.69 0.69,-1.38 0.69,-2.77l0 -2.07 0 -188.38c0,-59.34 48.3,-99.36 106.96,-99.36 59.34,0 107.65,40.03 107.65,99.36l0 188.38zm276.02 -321.56l-43.47 0 0 -125.59c0,-8.28 -8.97,-16.56 -17.94,-16.56 -8.28,0 -16.56,8.28 -16.56,16.56l0 125.59 -42.1 0c-16.56,0 -16.56,8.28 -16.56,16.56 0,8.28 0,16.56 16.56,16.56l42.1 0 0 246.34c0,33.81 25.53,58.66 59.35,58.66 8.28,0 17.25,-8.28 17.25,-16.56 0,-8.28 -8.97,-17.25 -17.25,-17.25 -8.29,0 -24.84,-8.28 -24.84,-24.84l0 -246.34 43.47 0c8.28,0 16.56,-8.28 16.56,-16.56 0,-8.28 -8.28,-16.56 -16.56,-16.56zm367.8 94.54c0,134.56 112.47,243.58 251.17,243.58 59.34,0 113.85,-20.01 155.94,-52.44 7.59,-5.51 8.97,-17.94 2.07,-24.15 -4.82,-8.27 -15.86,-9.66 -24.14,-4.14 -35.88,30.36 -82.81,46.92 -133.87,46.92 -120.76,0 -217.37,-94.53 -217.37,-209.77 0,-117.99 96.61,-212.53 217.37,-212.53 51.06,0 97.99,17.94 135.25,46.92 6.9,5.52 17.94,4.84 23.45,-3.45 6.21,-6.21 4.84,-17.94 -2.76,-24.15 -42.1,-32.43 -96.61,-53.13 -155.94,-53.13 -138.7,0.69 -251.17,109.02 -251.17,246.35zm812.86 -94.54c-8.97,0 -16.56,6.9 -16.56,16.56l0 49.69c-28.98,-40.03 -75.21,-66.25 -126.97,-66.25 -89.02,0 -160.09,76.6 -160.09,169.06 0,92.46 71.07,169.06 160.09,169.06 51.76,0 97.99,-26.91 126.97,-66.93l0 50.37c0,8.97 7.59,16.56 16.56,16.56 8.97,0 16.56,-7.59 16.56,-16.56l0 -305c0,-9.66 -7.59,-16.56 -16.56,-16.56zm-143.53 305c-69.01,0 -126.97,-60.03 -126.97,-135.94 0,-75.9 57.96,-136.62 126.97,-136.62 69.7,0 126.97,60.73 126.97,136.62 0,75.91 -57.27,135.94 -126.97,135.94zm303.62 16.56c0,9.66 7.59,16.56 17.25,16.56 8.28,0 15.87,-6.9 15.87,-16.56l0 -148.35c0,-1.39 0,-2.77 1.38,-5.52 4.84,-13.81 17.94,-48.3 40.72,-78.67 23.45,-30.36 53.82,-55.2 97.98,-55.2 8.97,0 16.56,-7.59 16.56,-16.56 0,-9.66 -7.59,-16.56 -16.56,-16.56 -64.86,0 -109.71,42.78 -135.25,82.81 -2.07,2.76 -3.45,5.51 -4.82,8.28l0 -74.53c0,-9.66 -7.59,-16.56 -15.87,-16.56 -9.66,0 -17.25,6.9 -17.25,16.56l0 304.31zm408.51 16.56c57.27,0 107.65,-30.36 136.62,-76.6 4.84,-8.27 2.07,-17.94 -5.52,-23.45 -6.89,-4.15 -17.25,-2.76 -22.08,5.51 -22.78,37.96 -64.17,61.41 -109.02,61.41 -69.7,0 -127.65,-55.89 -131.11,-129.72l277.4 0c8.97,0 16.56,-6.21 16.56,-15.18l0 -2.07 0 -0.69c-6.9,-88.33 -75.91,-157.33 -162.85,-157.33 -91.08,0 -164.24,75.91 -164.24,169.75 0,92.47 73.15,168.37 164.24,168.37zm0 -305c62.1,0 115.93,46.23 126.97,109.71l-256.01 0c12.43,-64.17 65.56,-109.71 129.04,-109.71zm420.23 305c57.28,0 107.66,-30.36 136.64,-76.6 4.84,-8.27 2.07,-17.94 -5.52,-23.45 -6.89,-4.15 -17.25,-2.76 -22.08,5.51 -22.78,37.96 -64.17,61.41 -109.03,61.41 -69.7,0 -127.65,-55.89 -131.11,-129.72l277.41 0c8.97,0 16.56,-6.21 16.56,-15.18l0 -2.07 0 -0.69c-6.9,-88.33 -75.91,-157.33 -162.86,-157.33 -91.08,0 -164.24,75.91 -164.24,169.75 0,92.47 73.15,168.37 164.24,168.37zm0 -305c62.11,0 115.94,46.23 126.98,109.71l-256.02 0c12.43,-64.17 65.56,-109.71 129.04,-109.71zm265.67 288.43c0,9.66 7.59,16.56 17.25,16.56 8.28,0 15.87,-6.9 15.87,-16.56l0 -148.35c0,-1.39 0,-2.77 1.38,-5.52 4.84,-13.81 17.94,-48.3 40.72,-78.67 23.45,-30.36 53.82,-55.2 97.98,-55.2 8.97,0 16.56,-7.59 16.56,-16.56 0,-9.66 -7.59,-16.56 -16.56,-16.56 -64.86,0 -109.71,42.78 -135.25,82.81 -2.07,2.76 -3.45,5.51 -4.82,8.28l0 -74.53c0,-9.66 -7.59,-16.56 -15.87,-16.56 -9.66,0 -17.25,6.9 -17.25,16.56l0 304.31zm281.54 -31.74c27.6,22.08 70.39,47.61 124.9,48.3 33.11,0 60.72,-9.66 84.18,-26.91 22.78,-17.25 38.64,-40.02 38.64,-68.32 0,-28.29 -15.86,-54.51 -37.95,-69 -23.45,-13.12 -49.68,-22.78 -82.11,-27.6l-1.38 0c-31.06,-4.84 -53.82,-13.12 -69.01,-23.47 -13.11,-10.35 -19.32,-20.01 -19.32,-33.81 0,-13.8 7.59,-27.6 21.39,-38.64 14.49,-11.73 36.57,-19.32 64.18,-19.32 33.11,0 57.96,17.25 82.8,33.81 7.59,4.82 17.94,2.76 22.77,-4.84 4.84,-7.59 2.77,-17.94 -4.82,-23.47 -26.22,-16.55 -57.28,-36.57 -100.74,-36.57 -34.5,0 -62.79,8.97 -82.81,22.78 -21.39,15.87 -36.57,39.33 -36.57,66.24 0,26.22 15.18,48.31 36.57,60.73 19.32,13.81 46.23,20.7 76.6,26.22l1.38 0.69c33.13,5.52 57.27,13.81 71.76,24.84 17.25,14.48 23.47,25.53 24.15,41.4 0,15.18 -8.97,30.37 -25.53,41.41 -15.18,12.42 -37.95,20.7 -64.17,20.7 -42.78,0 -80.05,-22.08 -103.51,-39.33 -7.59,-6.21 -17.94,-4.84 -23.45,2.07 -5.52,6.9 -4.84,15.87 2.07,22.09zm-8708.98 -1449.73c0,377.45 250.89,632.79 575.04,632.79 224.25,0 381.88,-115.47 455.15,-246.47l0 226.48 204.26 0 0 -1216.71 -204.26 0 0 222.02c-71.04,-126.55 -226.47,-242.01 -452.93,-242.01 -326.37,0 -577.26,244.23 -577.26,623.89zm1030.19 2.22c0,286.42 -190.94,452.93 -412.96,452.93 -222.04,0 -410.75,-168.73 -410.75,-455.15 0,-286.41 188.72,-448.49 410.75,-448.49 222.02,0 412.96,168.74 412.96,450.71zm748.24 -51.07c0,-281.97 146.53,-368.55 339.7,-368.55l53.28 0 0 -208.71c-193.16,0 -324.16,84.37 -392.98,219.81l0 -197.6 -202.05 0 0 1216.71 202.05 0 0 -661.65zm1143.43 -404.08c208.71,0 386.32,130.99 384.11,368.56l-768.21 0c22.19,-237.57 186.49,-368.56 384.1,-368.56zm568.38 690.5l-217.58 0c-44.41,130.99 -159.86,224.24 -341.92,224.24 -206.49,0 -379.67,-135.43 -395.21,-381.88l972.47 0c4.44,-42.18 6.67,-77.71 6.67,-122.11 0,-333.04 -230.91,-581.71 -583.93,-581.71 -355.25,0 -601.69,242.01 -601.69,626.11 0,386.33 255.33,630.57 601.69,630.57 301.95,0 497.33,-173.2 559.5,-395.22zm808.18 -690.5c208.71,0 386.32,130.99 384.11,368.56l-768.21 0c22.19,-237.57 186.49,-368.56 384.1,-368.56zm568.38 690.5l-217.58 0c-44.41,130.99 -159.86,224.24 -341.92,224.24 -206.49,0 -379.67,-135.43 -395.21,-381.88l972.47 0c4.44,-42.18 6.67,-77.71 6.67,-122.11 0,-333.04 -230.91,-581.71 -583.93,-581.71 -355.25,0 -601.7,242.01 -601.7,626.11 0,386.33 255.34,630.57 601.7,630.57 301.95,0 497.33,-173.2 559.5,-395.22zm492.9 -286.42c0,-281.97 146.53,-368.55 339.7,-368.55l53.28 0 0 -208.71c-193.16,0 -324.16,84.37 -392.98,219.81l0 -197.6 -202.05 0 0 1216.71 202.05 0 0 -661.65zm2104.82 -113.22c0,-464.04 -339.7,-790.42 -777.09,-790.42 -435.17,0 -777.1,326.38 -777.1,790.42 0,464.03 341.93,790.42 777.1,790.42 437.39,0 777.09,-326.39 777.09,-790.42zm-1347.7 0c0,-379.67 244.23,-615.02 570.61,-615.02 326.37,0 570.6,235.35 570.6,615.02 0,377.44 -244.23,615.01 -570.6,615.01 -326.38,0 -570.61,-237.57 -570.61,-615.01zm1851.69 774.88l208.71 0 293.08 -965.82 293.08 965.82 208.71 0 379.67 -1216.71 -199.83 0 -275.31 1023.54 -295.29 -1023.54 -206.49 0 -301.96 1021.32 -279.75 -1021.32 -206.48 0 381.88 1216.71zm1583.06 0l202.05 0 0 -1643 -202.05 0 0 1643z"/>
 </g>
</svg>
